<?xml version="1.0" encoding="UTF-8"?>
<svg width="96px" height="131px" viewBox="0 0 96 131" version="1.1" xmlns="http://www.w3.org/2000/svg" xmlns:xlink="http://www.w3.org/1999/xlink">
    <!-- Generator: Sketch 60 (88103) - https://sketch.com -->
    <title>Illustration No Shopping List</title>
    <desc>Created with Sketch.</desc>
    <defs>
        <path d="M85.5646149,119.188142 L22.0663225,119.188142 C21.3882054,118.327966 20.3405637,117.773938 19.1700746,117.773938 L3.21663356,117.773938 L6.23671145,116.253077 C7.19885147,115.768179 7.87598575,114.932692 8.19244038,113.974747 C8.50889502,113.016802 8.46466999,111.940348 7.98212582,110.972527 C7.29811208,109.600789 5.90846348,108.804805 4.47164152,108.804805 C3.88295729,108.804805 3.2873936,108.938128 2.72819272,109.219586 L0.0717428201,110.557747 L0.0717428201,0.0195539342 L85.5646149,0.0195539342 L85.5646149,119.188142 L85.5646149,119.188142 Z M36.1672263,96.9657871 L56.3299071,96.9657871 L56.3299071,95.4498634 L36.1672263,95.4498634 L36.1672263,96.9657871 Z M50.0902473,93.5803888 L58.8585958,93.5803888 L58.8585958,92.0644651 L50.0902473,92.0644651 L50.0902473,93.5803888 Z M36.1672263,93.5803888 L48.6445803,93.5803888 L48.6445803,92.0644651 L36.1672263,92.0644651 L36.1672263,93.5803888 Z M36.1672263,90.1949905 L56.3299071,90.1949905 L56.3299071,88.6790668 L36.1672263,88.6790668 L36.1672263,90.1949905 Z M36.1672263,72.9717272 L56.3299071,72.9717272 L56.3299071,71.454816 L36.1672263,71.454816 L36.1672263,72.9717272 Z M50.0902473,69.5853413 L55.3088004,69.5853413 L55.3088004,68.0694176 L50.0902473,68.0694176 L50.0902473,69.5853413 Z M36.1672263,69.5853413 L48.6445803,69.5853413 L48.6445803,68.0694176 L36.1672263,68.0694176 L36.1672263,69.5853413 Z M36.1672263,66.199943 L55.5603916,66.199943 L55.5603916,64.6840193 L36.1672263,64.6840193 L36.1672263,66.199943 Z M66.6294243,49.6383533 L73.4616994,49.6383533 L73.4616994,48.1224296 L66.6294243,48.1224296 L66.6294243,49.6383533 Z M36.1672263,49.6383533 L56.3299071,49.6383533 L56.3299071,48.1224296 L36.1672263,48.1224296 L36.1672263,49.6383533 Z M67.8461039,46.25256 L73.4616994,46.25256 L73.4616994,44.7366363 L67.8461039,44.7366363 L67.8461039,46.25256 Z M51.0631979,46.25256 L56.6787934,46.25256 L56.6787934,44.7366363 L51.0631979,44.7366363 L51.0631979,46.25256 Z M36.1672263,46.25256 L48.6445803,46.25256 L48.6445803,44.7366363 L36.1672263,44.7366363 L36.1672263,46.25256 Z M68.8790039,42.8670629 L73.4616994,42.8670629 L73.4616994,41.3510405 L68.8790039,41.3510405 L68.8790039,42.8670629 Z M36.1672263,42.8670629 L56.3299071,42.8670629 L56.3299071,41.3510405 L36.1672263,41.3510405 L36.1672263,42.8670629 Z" id="path-1"></path>
        <linearGradient x1="0%" y1="50.0000829%" x2="100.000115%" y2="50.0000829%" id="linearGradient-3">
            <stop stop-color="#3D815B" offset="0%"></stop>
            <stop stop-color="#277454" offset="100%"></stop>
        </linearGradient>
        <linearGradient x1="-179.021252%" y1="1203.99974%" x2="244.994638%" y2="1203.99974%" id="linearGradient-4">
            <stop stop-color="#93BBAA" offset="0%"></stop>
            <stop stop-color="#88B6A7" offset="100%"></stop>
        </linearGradient>
        <linearGradient x1="-1501.45829%" y1="1203.99974%" x2="364.102509%" y2="1203.99974%" id="linearGradient-5">
            <stop stop-color="#93BBAA" offset="0%"></stop>
            <stop stop-color="#88B6A7" offset="100%"></stop>
        </linearGradient>
        <linearGradient x1="-179.021252%" y1="757.394137%" x2="244.994638%" y2="757.394137%" id="linearGradient-6">
            <stop stop-color="#93BBAA" offset="0%"></stop>
            <stop stop-color="#88B6A7" offset="100%"></stop>
        </linearGradient>
        <linearGradient x1="-974.165708%" y1="757.394137%" x2="277.144707%" y2="757.394137%" id="linearGradient-7">
            <stop stop-color="#93BBAA" offset="0%"></stop>
            <stop stop-color="#88B6A7" offset="100%"></stop>
        </linearGradient>
        <linearGradient x1="-1206.89534%" y1="980.742671%" x2="315.525026%" y2="980.742671%" id="linearGradient-8">
            <stop stop-color="#93BBAA" offset="0%"></stop>
            <stop stop-color="#88B6A7" offset="100%"></stop>
        </linearGradient>
        <linearGradient x1="-908.032902%" y1="980.742671%" x2="614.387469%" y2="980.742671%" id="linearGradient-9">
            <stop stop-color="#93BBAA" offset="0%"></stop>
            <stop stop-color="#88B6A7" offset="100%"></stop>
        </linearGradient>
        <linearGradient x1="-289.287965%" y1="980.742671%" x2="395.897133%" y2="980.742671%" id="linearGradient-10">
            <stop stop-color="#93BBAA" offset="0%"></stop>
            <stop stop-color="#88B6A7" offset="100%"></stop>
        </linearGradient>
        <linearGradient x1="-186.124766%" y1="-335.114007%" x2="254.715958%" y2="-335.114007%" id="linearGradient-11">
            <stop stop-color="#93BBAA" offset="0%"></stop>
            <stop stop-color="#88B6A7" offset="100%"></stop>
        </linearGradient>
        <linearGradient x1="-179.021252%" y1="-781.25%" x2="244.994638%" y2="-781.25%" id="linearGradient-12">
            <stop stop-color="#93BBAA" offset="0%"></stop>
            <stop stop-color="#88B6A7" offset="100%"></stop>
        </linearGradient>
        <linearGradient x1="-958.474576%" y1="-558.436482%" x2="679.775895%" y2="-558.436482%" id="linearGradient-13">
            <stop stop-color="#93BBAA" offset="0%"></stop>
            <stop stop-color="#88B6A7" offset="100%"></stop>
        </linearGradient>
        <linearGradient x1="-289.287965%" y1="-558.436482%" x2="395.897133%" y2="-558.436482%" id="linearGradient-14">
            <stop stop-color="#93BBAA" offset="0%"></stop>
            <stop stop-color="#88B6A7" offset="100%"></stop>
        </linearGradient>
        <linearGradient x1="-179.021252%" y1="-1917.98046%" x2="244.994638%" y2="-1917.98046%" id="linearGradient-15">
            <stop stop-color="#93BBAA" offset="0%"></stop>
            <stop stop-color="#88B6A7" offset="100%"></stop>
        </linearGradient>
        <linearGradient x1="-179.021252%" y1="-2364.62541%" x2="244.994638%" y2="-2364.62541%" id="linearGradient-16">
            <stop stop-color="#93BBAA" offset="0%"></stop>
            <stop stop-color="#88B6A7" offset="100%"></stop>
        </linearGradient>
        <linearGradient x1="-570.443847%" y1="-2141.30293%" x2="404.574087%" y2="-2141.30293%" id="linearGradient-17">
            <stop stop-color="#93BBAA" offset="0%"></stop>
            <stop stop-color="#88B6A7" offset="100%"></stop>
        </linearGradient>
        <linearGradient x1="-289.287965%" y1="-2141.30293%" x2="395.897133%" y2="-2141.30293%" id="linearGradient-18">
            <stop stop-color="#93BBAA" offset="0%"></stop>
            <stop stop-color="#88B6A7" offset="100%"></stop>
        </linearGradient>
        <linearGradient x1="-179.021252%" y1="-1917.98046%" x2="244.994638%" y2="-1917.98046%" id="linearGradient-19">
            <stop stop-color="#93BBAA" offset="0%"></stop>
            <stop stop-color="#88B6A7" offset="100%"></stop>
        </linearGradient>
        <linearGradient x1="-179.021252%" y1="-2364.62541%" x2="244.994638%" y2="-2364.62541%" id="linearGradient-20">
            <stop stop-color="#93BBAA" offset="0%"></stop>
            <stop stop-color="#88B6A7" offset="100%"></stop>
        </linearGradient>
        <linearGradient x1="-570.443847%" y1="-2141.30293%" x2="404.574087%" y2="-2141.30293%" id="linearGradient-21">
            <stop stop-color="#93BBAA" offset="0%"></stop>
            <stop stop-color="#88B6A7" offset="100%"></stop>
        </linearGradient>
        <linearGradient x1="-289.287965%" y1="-2141.30293%" x2="395.897133%" y2="-2141.30293%" id="linearGradient-22">
            <stop stop-color="#93BBAA" offset="0%"></stop>
            <stop stop-color="#88B6A7" offset="100%"></stop>
        </linearGradient>
    </defs>
    <g id="Release-v1" stroke="none" stroke-width="1" fill="none" fill-rule="evenodd">
        <g id="1)-Shopping-List---EMPTY-SHOPPING-LIST" transform="translate(-132.000000, -280.000000)">
            <g id="Page-Body---Empty" transform="translate(0.000000, 225.000000)">
                <g id="Illustration-No-Shopping-List" transform="translate(132.000000, 55.000000)">
                    <polygon id="Fill-20" fill="#002822" points="0 129.999992 95.9999943 129.999992 95.9999943 0.399999976 0 0.399999976"></polygon>
                    <g id="Group-23" transform="translate(5.600000, 5.200000)">
                        <mask id="mask-2" fill="white">
                            <use xlink:href="#path-1"></use>
                        </mask>
                        <g id="Clip-22"></g>
                        <path d="M85.5646149,119.188142 L22.0663225,119.188142 C21.3882054,118.327966 20.3405637,117.773938 19.1700746,117.773938 L3.21663356,117.773938 L6.23671145,116.253077 C7.19885147,115.768179 7.87598575,114.932692 8.19244038,113.974747 C8.50889502,113.016802 8.46466999,111.940348 7.98212582,110.972527 C7.29811208,109.600789 5.90846348,108.804805 4.47164152,108.804805 C3.88295729,108.804805 3.2873936,108.938128 2.72819272,109.219586 L0.0717428201,110.557747 L0.0717428201,0.0195539342 L85.5646149,0.0195539342 L85.5646149,119.188142 L85.5646149,119.188142 Z M36.1672263,96.9657871 L56.3299071,96.9657871 L56.3299071,95.4498634 L36.1672263,95.4498634 L36.1672263,96.9657871 Z M50.0902473,93.5803888 L58.8585958,93.5803888 L58.8585958,92.0644651 L50.0902473,92.0644651 L50.0902473,93.5803888 Z M36.1672263,93.5803888 L48.6445803,93.5803888 L48.6445803,92.0644651 L36.1672263,92.0644651 L36.1672263,93.5803888 Z M36.1672263,90.1949905 L56.3299071,90.1949905 L56.3299071,88.6790668 L36.1672263,88.6790668 L36.1672263,90.1949905 Z M36.1672263,72.9717272 L56.3299071,72.9717272 L56.3299071,71.454816 L36.1672263,71.454816 L36.1672263,72.9717272 Z M50.0902473,69.5853413 L55.3088004,69.5853413 L55.3088004,68.0694176 L50.0902473,68.0694176 L50.0902473,69.5853413 Z M36.1672263,69.5853413 L48.6445803,69.5853413 L48.6445803,68.0694176 L36.1672263,68.0694176 L36.1672263,69.5853413 Z M36.1672263,66.199943 L55.5603916,66.199943 L55.5603916,64.6840193 L36.1672263,64.6840193 L36.1672263,66.199943 Z M66.6294243,49.6383533 L73.4616994,49.6383533 L73.4616994,48.1224296 L66.6294243,48.1224296 L66.6294243,49.6383533 Z M36.1672263,49.6383533 L56.3299071,49.6383533 L56.3299071,48.1224296 L36.1672263,48.1224296 L36.1672263,49.6383533 Z M67.8461039,46.25256 L73.4616994,46.25256 L73.4616994,44.7366363 L67.8461039,44.7366363 L67.8461039,46.25256 Z M51.0631979,46.25256 L56.6787934,46.25256 L56.6787934,44.7366363 L51.0631979,44.7366363 L51.0631979,46.25256 Z M36.1672263,46.25256 L48.6445803,46.25256 L48.6445803,44.7366363 L36.1672263,44.7366363 L36.1672263,46.25256 Z M68.8790039,42.8670629 L73.4616994,42.8670629 L73.4616994,41.3510405 L68.8790039,41.3510405 L68.8790039,42.8670629 Z M36.1672263,42.8670629 L56.3299071,42.8670629 L56.3299071,41.3510405 L36.1672263,41.3510405 L36.1672263,42.8670629 Z" id="Fill-21" fill="url(#linearGradient-3)" mask="url(#mask-2)"></path>
                    </g>
                    <path d="M31.1999981,0.399999976 L31.1999981,4.80004938 C31.1999981,7.23006379 33.1440883,9.19999945 35.5413417,9.19999945 L58.8596336,9.19999945 C61.256887,9.19999945 63.1999981,7.23006379 63.1999981,4.80004938 L63.1999981,0.399999976 L31.1999981,0.399999976" id="Fill-24" fill="#FD9C28"></path>
                    <path d="M16.7158955,57.2841274 L30.4841017,57.2841274 L30.4841017,43.5159632 L16.7158955,43.5159632 L16.7158955,57.2841274 Z M15.999999,57.9999965 L31.1999981,57.9999965 L31.1999981,42.7999974 L15.999999,42.7999974 L15.999999,57.9999965 Z" id="Fill-35" fill="#EAF7F9"></path>
                    <path d="M24.1851846,55.5999967 C23.8652061,55.5999967 23.5607416,55.4546487 23.3551796,55.1987964 L18.6476161,49.3520238 C18.2675203,48.8809369 18.3324856,48.1834657 18.7911216,47.7940127 C19.2497576,47.4046592 19.9294696,47.4707627 20.3085957,47.941949 L24.0416791,52.5785502 L30.7961359,40.9402571 C31.1006003,40.4152124 31.7618894,40.2433832 32.2738551,40.5560805 C32.7848512,40.8688773 32.9525975,41.5481303 32.6481331,42.0730756 L25.1111832,55.0604171 C24.9318013,55.3690327 24.6176405,55.5691351 24.2676034,55.5970101 C24.2404537,55.5990012 24.2123343,55.5999967 24.1851846,55.5999967" id="Fill-36" fill="#FD9C28"></path>
                    <path d="M16.7158955,82.0840986 L30.4841017,82.0840986 L30.4841017,68.3158925 L16.7158955,68.3158925 L16.7158955,82.0840986 Z M15.999999,82.7999951 L31.1999981,82.7999951 L31.1999981,67.599996 L15.999999,67.599996 L15.999999,82.7999951 Z" id="Fill-37" fill="#EAF7F9"></path>
                    <path d="M24.1851846,79.5999953 C23.8652061,79.5999953 23.5607416,79.4536559 23.3551796,79.1988065 L18.6476161,73.3522016 C18.2675203,72.8813275 18.3324856,72.183478 18.7911216,71.7942353 C19.2497576,71.4049925 19.9294696,71.4706959 20.3085957,71.9415701 L24.0416791,76.5786355 L30.7961359,64.9401787 C31.1006003,64.4155472 31.7618894,64.2433247 32.2738551,64.5559135 C32.7848512,64.8685023 32.9525975,65.5484327 32.6481331,66.0730641 L25.1111832,79.0594357 C24.9318013,79.3690379 24.6176405,79.5691346 24.2676034,79.5970087 C24.2404537,79.5989997 24.2123343,79.5999953 24.1851846,79.5999953" id="Fill-38" fill="#FD9C28"></path>
                    <polygon id="Fill-41" fill="url(#linearGradient-4)" points="41.5999975 47.5999972 61.5999963 47.5999972 61.5999963 45.9999973 41.5999975 45.9999973"></polygon>
                    <polygon id="Fill-43" fill="url(#linearGradient-5)" points="74.3999956 47.5999972 79.1999953 47.5999972 79.1999953 45.9999973 74.3999956 45.9999973"></polygon>
                    <polygon id="Fill-45" fill="url(#linearGradient-6)" points="41.5999975 54.7999967 61.5999963 54.7999967 61.5999963 53.1999968 41.5999975 53.1999968"></polygon>
                    <polygon id="Fill-47" fill="url(#linearGradient-7)" points="71.9999957 54.7999967 79.1999953 54.7999967 79.1999953 53.1999968 71.9999957 53.1999968"></polygon>
                    <polygon id="Fill-49" fill="url(#linearGradient-8)" points="73.5999956 51.5999969 79.1999953 51.5999969 79.1999953 49.999997 73.5999956 49.999997"></polygon>
                    <polygon id="Fill-51" fill="url(#linearGradient-9)" points="56.7999966 51.5999969 62.3999963 51.5999969 62.3999963 49.999997 56.7999966 49.999997"></polygon>
                    <polygon id="Fill-53" fill="url(#linearGradient-10)" points="41.5999975 51.5999969 54.3999968 51.5999969 54.3999968 49.999997 41.5999975 49.999997"></polygon>
                    <path d="M67.2111414,60.966222 C66.9935338,58.1638159 70.0065619,56.242507 72.3864602,57.7003946 C72.4347081,57.7302286 72.4829559,57.7600626 72.5312037,57.7918855 C76.0936664,60.1070031 83.7808266,70.9138687 84.3095835,71.9968425 C84.8383404,73.0788219 86.3999949,81.6909002 86.3999949,81.6909002 C86.3999949,81.6909002 84.4700814,82.4039326 83.5681423,81.6640497 C83.5681423,81.6640497 80.4389255,73.4964977 79.9761402,73.0887665 C79.5133548,72.6800409 67.4592731,65.8490517 67.3558849,63.2883009 C67.3292993,62.6110693 67.2751436,61.7966014 67.2111414,60.966222" id="Fill-144" fill="#97C157"></path>
                    <polyline id="Fill-145" fill="#FD9C28" points="51.7644738 56.3999966 52.7999969 59.3079632 37.8355209 64.3999962 36.7999978 61.4929809 51.7644738 56.3999966"></polyline>
                    <polyline id="Fill-146" fill="#EAF7F9" points="33.599998 64.1036611 37.5999978 64.3999962 36.5637183 61.1999964 33.599998 64.1036611"></polyline>
                    <path d="M54.0214815,56.2813872 L54.3398181,57.194324 C54.5353543,57.7566402 54.2387439,58.36999 53.6766956,58.5656193 L53.0050715,58.7999965 L51.9999969,55.9109201 L52.7301874,55.6566965 C53.259174,55.472408 53.8372808,55.7521485 54.0214815,56.2813872" id="Fill-147" fill="#EAF7F9"></path>
                    <path d="M72.7999961,56.9204188 C72.7999961,56.9204188 67.7552992,59.4790089 64.7999961,58.6258235 C64.7999961,58.6258235 65.5045141,57.6992042 66.756024,56.9957852 C66.6429533,56.4083143 66.5540429,55.8991085 66.4999236,55.4662353 C66.3559274,54.4671484 66.3452968,53.8999685 66.3452968,53.8999685 L68.2790972,52.3163094 L70.114323,50.799997 C70.049573,54.9618607 72.7999961,56.9204188 72.7999961,56.9204188" id="Fill-153" fill="#F5C99D"></path>
                    <path d="M78.3392738,83.3839229 C76.2519087,84.6619033 74.2754473,85.6223917 71.9633044,86.1622283 C69.2362629,86.8162418 65.883408,86.6229422 64.7614988,86.7962107 C64.6466343,86.811234 64.5377111,86.7811874 64.4347291,86.7120803 C64.3466004,86.6660089 63.8514948,83.3007941 63.3563892,79.053212 C63.3346046,78.8829481 63.3108395,78.7096796 63.3019276,78.5374127 L63.2940059,78.4803242 C63.101905,76.8197509 62.9325789,75.0760488 62.7860276,73.327339 C62.6662121,71.9672313 62.5681812,70.6211454 62.4998566,69.3571868 C62.4137082,67.7767376 62.3780606,66.3244872 62.4137082,65.1286341 C62.4295516,64.5827882 62.4612384,64.0920277 62.5087685,63.6663681 C62.8048416,61.1845222 63.974281,59.4117751 65.076386,58.0917295 L65.9903508,57.0400999 C67.0498767,57.1082054 68.1321775,56.9058919 69.1530852,56.223835 C70.2690531,55.4806834 71.4741401,54.6814448 71.7018886,54.8146513 C73.4119832,55.7621195 74.8052103,58.2149204 75.8003725,61.4549412 C76.3707341,63.3198311 76.8084074,65.4371121 77.0886372,67.677584 C77.1787464,68.3736627 77.2549926,69.0867677 77.3134151,69.7978696 C77.3252976,69.929073 77.3351997,70.0602763 77.3451018,70.1894765 C77.4797705,72.1324874 77.6986072,73.9523075 77.9412089,75.5778264 C78.2689688,77.7712254 78.6412882,79.6070702 78.9036941,80.9010755 C79.0363824,81.5590951 79.1363938,82.0678836 79.1967966,82.4324485 C79.250268,82.7509421 78.6195036,83.2066482 78.3392738,83.3839229" id="Fill-154" fill="#B8DB70"></path>
                    <path d="M70.399996,52.4745981 C70.399996,52.4745981 69.1053148,54.8834323 66.561327,55.5999967 C66.4110875,54.5850274 66.399996,54.0088311 66.399996,54.0088311 L68.4176415,52.3999969 L70.399996,52.4745981" id="Fill-155" fill="#D8A982"></path>
                    <path d="M65.8933438,53.1295745 C65.8933438,53.1295745 71.1129698,53.8259486 71.5371614,50.8390527 C71.9623876,47.8526383 72.9225091,45.9312044 69.6076069,45.3604281 C66.2937393,44.7896517 65.4826022,45.8520316 65.075999,46.81742 C64.6693959,47.782712 64.5462768,52.8714442 65.8933438,53.1295745" id="Fill-156" fill="#F5C99D"></path>
                    <path d="M73.2134328,45.2534053 C73.2588514,45.1993156 73.3638189,45.1541731 73.5999956,45.1364821 C73.5999956,45.1364821 73.4082282,45.0212873 73.1559026,45.0199656 C73.0993816,44.6896321 72.91367,44.1068462 72.3444234,43.9755872 C72.3444234,43.9755872 72.6522607,44.1328743 72.6986886,44.484254 C72.0295211,43.8192151 70.6154884,43.3535557 66.7316927,43.7406224 C61.6135202,44.2507126 63.3686971,47.5230372 64.0398832,47.9039019 C64.7110693,48.2847665 66.3602695,47.1708442 67.5986835,47.245065 C68.8370976,47.3190825 69.1075906,49.1142096 69.5314976,49.3528346 C69.9564139,49.5913579 69.7828139,49.1580304 70.3449954,48.8881919 C70.9071768,48.6184552 70.9798466,49.5647198 70.8284512,50.1839044 C70.6770558,50.803089 71.4723861,51.5999974 71.4723861,51.5999974 C71.4723861,51.5999974 71.4723861,51.5999974 72.2434932,50.7293766 C73.0146002,49.8587562 73.6857863,46.2228512 73.3123444,45.4580718 C73.2800468,45.3905613 73.2467398,45.3221358 73.2134328,45.2534053" id="Fill-157" fill="#070707"></path>
                    <path d="M71.1999958,65.462431 C71.1999958,65.462431 66.9771545,68.5282764 62.5001287,69.1999961 C62.4137456,67.7049699 62.3780009,66.3312135 62.4137456,65.1999961 L71.1999958,65.462431" id="Fill-158" fill="#97C157"></path>
                    <path d="M45.5999973,61.4031222 C45.5309556,61.335486 44.636505,58.6112528 43.0918259,58.8104036 C42.0829928,58.9400396 40.4352664,59.4717347 40.872187,60.6826095 C41.044276,61.1588806 44.1171466,62.7999965 44.1171466,62.7999965 L45.5999973,61.4031222" id="Fill-159" fill="#F5C99D"></path>
                    <path d="M71.9157748,59.3736948 C74.3109534,60.7520457 74.1164562,64.1874666 71.555412,65.2540251 C71.5030853,65.2758886 71.4497713,65.297752 71.3974447,65.3177144 C67.4541869,66.8405545 54.2441744,66.9118485 53.0613945,66.7283853 C51.8776274,66.5458726 43.9999974,63.0096895 43.9999974,63.0096895 C43.9999974,63.0096895 44.5430098,61.0961582 45.6655647,60.7948221 C45.6655647,60.7948221 54.0931182,62.8518921 54.6924065,62.7131064 C55.2916949,62.5752713 67.8184989,56.8660467 69.9510569,58.2025718 C70.5157899,58.5561901 71.2059094,58.9639918 71.9157748,59.3736948" id="Fill-160" fill="#B8DB70"></path>
                    <path d="M16.7158955,105.284097 L30.4841017,105.284097 L30.4841017,91.5149249 L16.7158955,91.5149249 L16.7158955,105.284097 Z M15.999999,105.999994 L31.1999981,105.999994 L31.1999981,90.7999946 L15.999999,90.7999946 L15.999999,105.999994 Z" id="Fill-39" fill="#EAF7F9"></path>
                    <path d="M24.1851846,102.799994 C23.8652061,102.799994 23.5607416,102.653655 23.3551796,102.398805 L18.6476161,96.5522003 C18.2675203,96.0813261 18.3324856,95.3834766 18.7911216,94.9942339 C19.2497576,94.6049912 19.9294696,94.6706945 20.3085957,95.1415687 L24.0416791,99.7786341 L30.7961359,88.1401773 C31.1006003,87.6155458 31.7618894,87.4433233 32.2738551,87.7559121 C32.7848512,88.0694964 32.9525975,88.7484313 32.6481331,89.2730628 L25.1111832,102.26043 C24.9318013,102.569037 24.6176405,102.769133 24.2676034,102.797007 C24.2404537,102.798998 24.2123343,102.799994 24.1851846,102.799994" id="Fill-40" fill="#FD9C28"></path>
                    <polygon id="Fill-55" fill="url(#linearGradient-11)" points="41.5999975 71.5999957 60.7999964 71.5999957 60.7999964 69.9999958 41.5999975 69.9999958"></polygon>
                    <polygon id="Fill-57" fill="url(#linearGradient-12)" points="41.5999975 77.9999954 61.5999963 77.9999954 61.5999963 76.3999954 41.5999975 76.3999954"></polygon>
                    <polygon id="Fill-59" fill="url(#linearGradient-13)" points="55.9999967 74.7999955 61.5999963 74.7999955 61.5999963 73.1999956 55.9999967 73.1999956"></polygon>
                    <polygon id="Fill-61" fill="url(#linearGradient-14)" points="41.5999975 74.7999955 54.3999968 74.7999955 54.3999968 73.1999956 41.5999975 73.1999956"></polygon>
                    <polygon id="Fill-63" fill="url(#linearGradient-15)" points="41.5999975 95.5999943 61.5999963 95.5999943 61.5999963 93.9999944 41.5999975 93.9999944"></polygon>
                    <polygon id="Fill-65" fill="url(#linearGradient-16)" points="41.5999975 101.999994 61.5999963 101.999994 61.5999963 100.399994 41.5999975 100.399994"></polygon>
                    <polygon id="Fill-67" fill="url(#linearGradient-17)" points="55.9999967 98.7999941 64.7999961 98.7999941 64.7999961 97.1999942 55.9999967 97.1999942"></polygon>
                    <polygon id="Fill-69" fill="url(#linearGradient-18)" points="41.5999975 98.7999941 54.3999968 98.7999941 54.3999968 97.1999942 41.5999975 97.1999942"></polygon>
                    <path d="M17.5158955,34.8841014 L31.2841016,34.8841014 L31.2841016,21.1149291 L17.5158955,21.1149291 L17.5158955,34.8841014 Z M16.799999,35.5999979 L31.9999981,35.5999979 L31.9999981,20.3999988 L16.799999,20.3999988 L16.799999,35.5999979 Z" id="Fill-39-Copy" fill="#EAF7F9"></path>
                    <path d="M24.1851846,32.3999981 C23.8652061,32.3999981 23.5607416,32.2536587 23.3551796,31.9988093 L18.6476161,26.1522045 C18.2675203,25.6813303 18.3324856,24.9834808 18.7911216,24.5942381 C19.2497576,24.2049954 19.9294696,24.2706987 20.3085957,24.7415729 L24.0416791,29.3786383 L30.7961359,17.7401815 C31.1006003,17.21555 31.7618894,17.0433275 32.2738551,17.3559163 C32.7848512,17.6695006 32.9525975,18.3484355 32.6481331,18.873067 L25.1111832,31.860434 C24.9318013,32.1690408 24.6176405,32.3691374 24.2676034,32.3970116 C24.2404537,32.3990026 24.2123343,32.3999981 24.1851846,32.3999981" id="Fill-40-Copy" fill="#FD9C28"></path>
                    <polygon id="Fill-63-Copy" fill="url(#linearGradient-19)" points="42.3999975 24.3999985 75.1999955 24.3999985 75.1999955 22.7999986 42.3999975 22.7999986"></polygon>
                    <polygon id="Fill-65-Copy" fill="url(#linearGradient-20)" points="42.3999975 31.5999981 75.1999955 31.5999981 75.1999955 29.9999982 42.3999975 29.9999982"></polygon>
                    <polygon id="Fill-67-Copy" fill="url(#linearGradient-21)" points="64.7999961 28.3999983 79.1999953 28.3999983 79.1999953 26.7999984 64.7999961 26.7999984"></polygon>
                    <polygon id="Fill-69-Copy" fill="url(#linearGradient-22)" points="42.3999975 28.3999983 62.3999963 28.3999983 62.3999963 26.7999984 42.3999975 26.7999984"></polygon>
                    <polygon id="Fill-71" fill="#ABDDDA" points="15.999999 115.599993 26.3999984 115.599993 26.3999984 114.799993 15.999999 114.799993"></polygon>
                    <polygon id="Fill-72" fill="#ABDDDA" points="28.7999983 115.599993 39.1999977 115.599993 39.1999977 114.799993 28.7999983 114.799993"></polygon>
                    <polygon id="Fill-73" fill="#ABDDDA" points="15.999999 117.999993 30.3999982 117.999993 30.3999982 117.199993 15.999999 117.199993"></polygon>
                    <path d="M85.7790095,79.7045732 C85.7790095,79.7045732 86.4548498,82.2593246 86.3964124,82.8424066 C86.338822,83.4265279 85.9145163,85.423142 85.6113198,85.9334686 C85.3081232,86.4448347 85.1590657,83.8526663 84.919388,83.4629056 C84.6788634,83.0731449 84.8694199,84.4388663 84.7008833,84.5656685 C84.5314997,84.6914313 84.179182,83.5606056 84.0275837,83.1614907 C83.8759855,82.7623757 84.3985337,81.2916787 84.3993806,80.2658286 C84.4010744,79.2410178 85.7790095,79.7045732 85.7790095,79.7045732" id="Fill-143" fill="#F5C99D"></path>
                    <path d="M64.7999961,84.3260956 C64.7999961,84.3260956 65.2301642,89.5646742 65.7348417,95.8628072 C66.4203289,104.418166 67.2458938,114.926893 67.3273575,116.91775 C67.4684288,120.37462 68.0347008,125.904231 68.0347008,125.904231 C68.0347008,125.904231 69.3768648,127.217328 72.0641732,126.663874 C72.0641732,126.663874 74.458411,118.77049 75.1429047,110.418361 C75.1528393,110.28123 75.1637674,110.143113 75.1746954,110.005983 C75.8105096,101.502912 76.7999961,83.599995 76.7999961,83.599995 L64.7999961,84.3260956" id="Fill-150" fill="#FD9C28"></path>
                    <path d="M64.7999961,84.3364282 C64.7999961,84.3364282 65.2301642,89.6495532 65.7348417,96.0373103 L75.1429047,110.799993 C75.1528393,110.660912 75.1637674,110.520829 75.1746954,110.381747 C75.8105096,101.757675 76.7999961,83.599995 76.7999961,83.599995 L64.7999961,84.3364282" id="Fill-151" fill="#E65924"></path>
                    <path d="M66.399996,85.4599058 C66.399996,85.4599058 74.0402372,104.649041 79.0650859,113.665959 C84.0889539,122.683875 85.658974,125.199993 85.658974,125.199993 C85.658974,125.199993 88.5381613,124.046689 88.7999947,123.260527 C88.7999947,123.260527 86.8779214,105.85123 83.5133126,101.608151 C81.6128136,99.2097583 79.3788938,92.0135831 79.2739643,89.4974659 C79.1700154,86.9803509 78.5943741,81.9999951 78.5943741,81.9999951 L66.399996,85.4599058" id="Fill-152" fill="#FD9C28"></path>
                    <path d="M89.2071297,123.410737 C89.2071297,123.410737 90.6436646,124.702026 90.3638457,125.619112 C90.0830416,126.535229 88.7864161,127.146943 88.6110366,128.267611 C88.4356572,129.388278 87.7341395,129.999992 87.1035617,129.999992 C86.4719987,129.999992 84.0955088,129.999992 84.0955088,129.999992 C84.0955088,129.999992 83.6304577,129.210872 84.752689,128.97336 C85.8739351,128.735848 86.2976045,127.418385 86.2266645,126.195926 C86.1567098,124.973468 86.3320892,123.342877 86.3320892,123.342877 L88.7154761,122.799993 L89.2071297,123.410737" id="Fill-148" fill="#4AC195"></path>
                    <path d="M71.945836,127.246306 C71.945836,127.246306 72.213087,130.464278 71.5602602,130.799992 L63.1999962,130.781932 C63.1999962,130.781932 63.1999962,129.776913 64.5423715,129.553812 C65.8847467,129.329648 68.2441038,128.511609 68.6429402,126.68749 C69.0427966,124.86337 71.945836,127.246306 71.945836,127.246306" id="Fill-149" fill="#4AC195"></path>
                </g>
            </g>
        </g>
    </g>
</svg>