<?xml version="1.0" encoding="UTF-8"?>
<svg width="30px" height="30px" viewBox="0 0 30 30" version="1.1" xmlns="http://www.w3.org/2000/svg" xmlns:xlink="http://www.w3.org/1999/xlink">
    <g id="Menu-Icon/Dark/Products" stroke="none" stroke-width="1" fill="none" fill-rule="evenodd">
        <g id="noun_product_3392921-copy" transform="translate(1.000000, 2.000000)" fill="#FFFFFF" fill-rule="nonzero">
            <g id="Group">
                <path d="M0.483333333,24.1666667 L9.16786667,24.1666667 L9.16786667,23.2 L5.8,23.2 L5.8,19.8166667 L9.14418333,19.8166667 L9.14418333,18.85 L5.8,18.85 L5.8,14.9833333 L9.19106667,14.9833333 L9.19106667,14.0166667 L5.8,14.0166667 L5.8,5.8 L12.5666667,5.8 L12.5666667,12.5357333 L13.5333333,12.5357333 L13.5333333,5.31666667 C13.5333333,5.30893333 13.5294667,5.30265 13.5289833,5.29491667 C13.5273435,5.24128118 13.516555,5.18831975 13.4970833,5.13831667 C13.4970833,5.13445 13.4970833,5.13058333 13.4941833,5.12671667 C13.4756671,5.08364858 13.4510908,5.04344774 13.4212,5.00733333 L11.1166667,2.2417 L11.1166667,1.45 C11.1166667,0.649187113 10.4674796,0 9.66666667,0 L3.86666667,0 C3.06585378,0 2.41666667,0.649187113 2.41666667,1.45 L2.41666667,2.2417 L0.112133333,5.00733333 C0.0397291829,5.09415726 -2.22044605e-16,5.20361468 -2.22044605e-16,5.31666667 L-2.22044605e-16,23.6833333 C-2.22044605e-16,23.950271 0.216395704,24.1666667 0.483333333,24.1666667 Z M12.0180833,4.83333333 L5.54141667,4.83333333 L3.93046667,2.9 L10.4071333,2.9 L12.0180833,4.83333333 Z M3.38333333,1.45 C3.38333333,1.18306237 3.59972904,0.966666667 3.86666667,0.966666667 L9.66666667,0.966666667 C9.9336043,0.966666667 10.15,1.18306237 10.15,1.45 L10.15,1.93333333 L3.38333333,1.93333333 L3.38333333,1.45 Z M0.966666667,5.49163333 L2.9,3.17163333 L4.83333333,5.49163333 L4.83333333,23.2 L0.966666667,23.2 L0.966666667,5.49163333 Z" id="Shape"></path>
                <path d="M11.6,9.18333333 C11.6,7.84864519 10.5180215,6.76666667 9.18333333,6.76666667 C7.84864519,6.76666667 6.76666667,7.84864519 6.76666667,9.18333333 C6.76666667,10.5180215 7.84864519,11.6 9.18333333,11.6 C10.517359,11.598402 11.598402,10.517359 11.6,9.18333333 L11.6,9.18333333 Z M9.18333333,10.6333333 C8.38252045,10.6333333 7.73333333,9.98414622 7.73333333,9.18333333 C7.73333333,8.38252045 8.38252045,7.73333333 9.18333333,7.73333333 C9.98414622,7.73333333 10.6333333,8.38252045 10.6333333,9.18333333 C10.6333333,9.98414622 9.98414622,10.6333333 9.18333333,10.6333333 Z" id="Shape"></path>
                <path d="M26.8593167,5.28525 L26.6316667,2.9 L27.0666667,2.9 C27.3336043,2.9 27.55,2.6836043 27.55,2.41666667 L27.55,0.483333333 C27.55,0.216395704 27.3336043,0 27.0666667,0 L21.2666667,0 C20.999729,0 20.7833333,0.216395704 20.7833333,0.483333333 L20.7833333,2.41666667 C20.7833333,2.6836043 20.999729,2.9 21.2666667,2.9 L21.7016667,2.9 L21.4807833,5.26108333 C21.4003314,6.11286184 21.0632531,6.92016442 20.5141167,7.57625 C19.7518004,8.50351961 19.3345144,9.66638604 19.3333333,10.8667833 L19.3333333,12.5821333 L20.3,12.5821333 L20.3,10.8667833 C20.303283,9.87715599 20.6522151,8.91977241 21.2864833,8.16011667 C21.9459955,7.36174667 22.350165,6.38348802 22.4464833,5.35243333 L22.67365,2.9 L25.66065,2.9 L25.897,5.37708333 C25.9947328,6.41084875 26.4024236,7.39099149 27.0666667,8.18911667 C27.6911746,8.94489902 28.0329721,9.89458326 28.0333333,10.875 L28.0333333,12.5666667 L22.2333333,12.5666667 L22.2333333,13.5333333 L28.0333333,13.5333333 L28.0333333,19.3333333 L23.6833333,19.3333333 L23.6833333,20.3 L28.0333333,20.3 L28.0333333,23.2 L23.6833333,23.2 L23.6833333,24.1666667 L28.5166667,24.1666667 C28.7836043,24.1666667 29,23.950271 29,23.6833333 L29,10.875 C28.9991161,9.66899279 28.5779923,8.50098963 27.8090667,7.5719 C27.2696183,6.92260676 26.9386123,6.12566563 26.8593167,5.28525 L26.8593167,5.28525 Z M26.5833333,1.93333333 L21.75,1.93333333 L21.75,0.966666667 L26.5833333,0.966666667 L26.5833333,1.93333333 Z" id="Shape"></path>
                <path d="M12.5666667,17.4 C11.7658538,17.4 11.1166667,18.0491871 11.1166667,18.85 C11.1166667,19.6508129 11.7658538,20.3 12.5666667,20.3 C13.3674796,20.3 14.0166667,19.6508129 14.0166667,18.85 C14.0166667,18.0491871 13.3674796,17.4 12.5666667,17.4 L12.5666667,17.4 Z M12.5666667,19.3333333 C12.299729,19.3333333 12.0833333,19.1169376 12.0833333,18.85 C12.0833333,18.5830624 12.299729,18.3666667 12.5666667,18.3666667 C12.8336043,18.3666667 13.05,18.5830624 13.05,18.85 C13.05,19.1169376 12.8336043,19.3333333 12.5666667,19.3333333 Z" id="Shape"></path>
                <path d="M20.3,21.2666667 C19.4991871,21.2666667 18.85,21.9158538 18.85,22.7166667 C18.85,23.5174796 19.4991871,24.1666667 20.3,24.1666667 C21.1008129,24.1666667 21.75,23.5174796 21.75,22.7166667 C21.75,21.9158538 21.1008129,21.2666667 20.3,21.2666667 Z M20.3,23.2 C20.0330624,23.2 19.8166667,22.9836043 19.8166667,22.7166667 C19.8166667,22.449729 20.0330624,22.2333333 20.3,22.2333333 C20.5669376,22.2333333 20.7833333,22.449729 20.7833333,22.7166667 C20.7833333,22.9836043 20.5669376,23.2 20.3,23.2 Z" id="Shape"></path>
                <rect id="Rectangle" x="15.95" y="17.8833333" width="1" height="1"></rect>
                <rect id="Rectangle" x="19.3333333" y="18.85" width="1" height="1"></rect>
                <rect id="Rectangle" x="15.4666667" y="21.2666667" width="1" height="1"></rect>
                <rect id="Rectangle" x="11.6" y="22.7166667" width="1" height="1"></rect>
                <path d="M18.2559833,13.1113833 C18.0670065,13.0984325 17.8878829,13.1970639 17.7977833,13.3636833 C17.4876897,13.804075 16.9708222,14.0514318 16.4333333,14.0166667 C15.8958444,14.0514318 15.378977,13.804075 15.0688833,13.3636833 C14.9787838,13.1970639 14.7996601,13.0984325 14.6106833,13.1113833 C12.7638667,13.2380167 9.66666667,13.6498167 9.66666667,14.9833333 C9.66666667,14.99735 9.67005,15.0104 9.67101667,15.0244167 L9.66666667,15.0244167 L9.66666667,24.15555 C9.66666667,26.0453833 15.7407167,26.1 16.4333333,26.1 C17.12595,26.1 23.2,26.0453833 23.2,24.15555 L23.2,15.0244167 L23.19565,15.0244167 C23.19565,15.0104 23.2,14.99735 23.2,14.9833333 C23.2,13.6498167 20.1028,13.2380167 18.2559833,13.1113833 Z M14.3994667,14.0969 C14.9247429,14.6622439 15.6616282,14.9834463 16.4333333,14.9834463 C17.2050385,14.9834463 17.9419237,14.6622439 18.4672,14.0969 C20.8418167,14.2873333 21.96895,14.7503667 22.2053,14.9847833 C21.8548833,15.3555 19.778,15.95145 16.4333333,15.95145 C13.0886667,15.95145 11.0117833,15.35695 10.6613667,14.9847833 C10.8977167,14.7503667 12.02485,14.2873333 14.3994667,14.0969 L14.3994667,14.0969 Z M16.4333333,25.1333333 C12.9286833,25.1333333 10.8203833,24.4769667 10.6333333,24.15555 L10.6333333,16.0809833 C12.3762333,16.8862167 15.9147167,16.9166667 16.4333333,16.9166667 C16.95195,16.9166667 20.4933333,16.8862167 22.2333333,16.0805 L22.2410667,24.1096333 C22.0462833,24.4769667 19.9379833,25.1333333 16.4333333,25.1333333 Z" id="Shape"></path>
            </g>
        </g>
    </g>
</svg>