<?xml version="1.0" encoding="UTF-8"?>
<svg width="30px" height="30px" viewBox="0 0 30 30" version="1.1" xmlns="http://www.w3.org/2000/svg" xmlns:xlink="http://www.w3.org/1999/xlink">
    <g id="Menu-Icon/Dark/Settings" stroke="none" stroke-width="1" fill="none" fill-rule="evenodd">
        <g id="noun_setting_3623266" transform="translate(1.000000, 1.000000)" fill="#FFFFFF" fill-rule="nonzero">
            <g id="Group">
                <path d="M15.8666667,28 L12.1333333,28 C11.3601347,28 10.7333333,27.3731986 10.7333333,26.6 L10.7333333,24.0646 C10.7344736,23.8737042 10.6171561,23.7020971 10.4388667,23.6338667 C10.1966667,23.5442667 9.95026667,23.4420667 9.70806667,23.3305333 C9.53358415,23.2529601 9.32932172,23.2912129 9.19473333,23.4266667 L7.39993333,25.2177333 C7.13885095,25.4827369 6.78214167,25.631576 6.41013333,25.6307333 L6.41013333,25.6307333 C6.03696103,25.631202 5.67933349,25.4813214 5.418,25.2149333 L2.78273333,22.5806 C2.51742005,22.3189192 2.36805941,21.9618166 2.36805941,21.5891667 C2.36805941,21.2165167 2.51742005,20.8594142 2.78273333,20.5977333 L4.57333333,18.8066667 C4.70940896,18.6724082 4.74773898,18.4677333 4.66946667,18.2933333 C4.55995556,18.0537778 4.45884444,17.8100222 4.36613333,17.5620667 C4.29875056,17.3837335 4.12743386,17.2662326 3.9368,17.2676 L1.4,17.2676 C0.62680135,17.2676 -4.4408921e-16,16.6407986 -4.4408921e-16,15.8676 L-4.4408921e-16,12.1333333 C-4.4408921e-16,11.3601347 0.62680135,10.7333333 1.4,10.7333333 L3.9354,10.7333333 C4.12630194,10.7349531 4.29808385,10.6177022 4.36613333,10.4393333 C4.45946667,10.1904444 4.56057778,9.94668889 4.66946667,9.70806667 C4.74759837,9.53364997 4.70928392,9.32905825 4.57333333,9.19473333 L2.78226667,7.39946667 C2.51721449,7.13774095 2.36802688,6.78076231 2.36802688,6.40826667 C2.36802688,6.03577102 2.51721449,5.67879238 2.78226667,5.41706667 L5.41706667,2.78273333 C5.67807141,2.51755837 6.03479044,2.36854703 6.40686667,2.36926667 L6.40686667,2.36926667 C6.78014329,2.36849666 7.13797231,2.51822295 7.39946667,2.7846 L9.19333333,4.57333333 C9.32759181,4.70940896 9.53226667,4.74773898 9.70666667,4.66946667 C9.9484,4.55793333 10.1962,4.45526667 10.4421333,4.36473333 C10.6181269,4.29811235 10.7342221,4.12917889 10.7333333,3.941 L10.7333333,1.4 C10.7333333,0.62680135 11.3601347,-4.4408921e-16 12.1333333,-4.4408921e-16 L15.8666667,-4.4408921e-16 C16.6398653,-4.4408921e-16 17.2666667,0.62680135 17.2666667,1.4 L17.2666667,3.9354 C17.2656745,4.12650127 17.383141,4.29824022 17.5616,4.3666 C17.8056667,4.45666667 18.0520667,4.55886667 18.2919333,4.66946667 C18.4663666,4.74745816 18.6708755,4.70915921 18.8052667,4.57333333 L20.6000667,2.78226667 C20.8610286,2.51708486 21.2178164,2.36821303 21.5898667,2.36926667 L21.5898667,2.36926667 C21.963039,2.36879803 22.3206665,2.51867862 22.582,2.78506667 L25.2163333,5.4194 C25.4813389,5.68139291 25.6302795,6.03867125 25.629841,6.4113213 C25.6294025,6.78397135 25.4796215,7.14089818 25.214,7.40226667 L23.4266667,9.19333333 C23.290591,9.32759181 23.252261,9.53226667 23.3305333,9.70666667 C23.443,9.95213333 23.5461333,10.1999333 23.6357333,10.4444667 C23.7022745,10.6184147 23.8694936,10.7330527 24.0557333,10.7324 L26.6,10.7324 C27.3731986,10.7324 28,11.3592014 28,12.1324 L28,15.8657333 C28,16.638932 27.3731986,17.2657333 26.6,17.2657333 L24.0646,17.2657333 C23.8736981,17.2641136 23.7019162,17.3813645 23.6338667,17.5597333 C23.5405333,17.8086222 23.4394222,18.0523778 23.3305333,18.291 C23.2524016,18.4654167 23.2907161,18.6700084 23.4266667,18.8043333 L25.2177333,20.5996 C25.4827855,20.8613257 25.6319731,21.2183044 25.6319731,21.5908 C25.6319731,21.9632956 25.4827855,22.3202743 25.2177333,22.582 L22.5829333,25.2163333 C22.3219286,25.4815083 21.9652096,25.6305196 21.5931333,25.6298 L21.5931333,25.6298 C21.2198567,25.63057 20.8620277,25.4808437 20.6005333,25.2144667 L18.8066667,23.4266667 C18.6720783,23.2912129 18.4678159,23.2529601 18.2933333,23.3305333 C18.0544,23.4406667 17.8094,23.5424 17.5606667,23.6343333 C17.3829709,23.7011239 17.2656611,23.8715025 17.2666667,24.0613333 L17.2666667,26.6 C17.2666667,27.3731986 16.6398653,28 15.8666667,28 Z M9.5242,22.3575333 C9.72266192,22.3573606 9.91880534,22.4001874 10.0991333,22.4830667 C10.3153556,22.5829333 10.5362444,22.6745556 10.7618,22.7579333 C11.306428,22.9621338 11.6670928,23.4829495 11.6666667,24.0646 L11.6666667,26.6 C11.6666667,26.8577329 11.8756005,27.0666667 12.1333333,27.0666667 L15.8666667,27.0666667 C16.1243995,27.0666667 16.3333333,26.8577329 16.3333333,26.6 L16.3333333,24.0613333 C16.3330176,23.4812713 16.6930112,22.9620247 17.2363333,22.7588667 C17.4617333,22.6753333 17.6838667,22.5834 17.9008667,22.4830667 C18.4301916,22.2427098 19.0530471,22.355348 19.4646667,22.7658667 L21.2594667,24.5569333 C21.3462278,24.646507 21.46563,24.6970298 21.5903333,24.6969333 L21.5903333,24.6969333 C21.7135885,24.6959518 21.8312856,24.6455102 21.917,24.5569333 L24.556,21.9179333 C24.6451103,21.831726 24.6956167,21.7131767 24.6960561,21.5891922 C24.6964954,21.4652077 24.6468304,21.3463034 24.5583333,21.2594667 L22.7658667,19.4646667 C22.3550534,19.0533922 22.2423684,18.4304633 22.4830667,17.9013333 C22.5829333,17.6835556 22.6745556,17.4623556 22.7579333,17.2377333 C22.9622869,16.6932891 23.4830678,16.3328343 24.0646,16.3333333 L26.6,16.3333333 C26.8577329,16.3333333 27.0666667,16.1243995 27.0666667,15.8666667 L27.0666667,12.1333333 C27.0666667,11.8756005 26.8577329,11.6666667 26.6,11.6666667 L24.0571333,11.6666667 C23.4795513,11.6669816 22.9624501,11.3087309 22.7598,10.7678667 C22.6761111,10.5401333 22.5838667,10.3169111 22.4830667,10.0982 C22.2424466,9.56921278 22.3551337,8.94645851 22.7658667,8.53533333 L24.5569333,6.74006667 C24.6463088,6.65390849 24.6969924,6.5352345 24.697432,6.41109339 C24.6978716,6.28695227 24.6480297,6.16792231 24.5592667,6.08113333 L21.9207333,3.4426 C21.8340751,3.35343766 21.715136,3.30296846 21.5908,3.3026 L21.5908,3.3026 C21.4674566,3.30315856 21.3496022,3.35366758 21.2641333,3.4426 L19.4646667,5.23413333 C19.0533084,5.64515192 18.4301219,5.75784993 17.9008667,5.51693333 C17.6849556,5.41706667 17.4640667,5.32544444 17.2382,5.24206667 C16.6936589,5.03775463 16.3330421,4.51700839 16.3333333,3.9354 L16.3333333,1.4 C16.3333333,1.14226712 16.1243995,0.933333333 15.8666667,0.933333333 L12.1333333,0.933333333 C11.8756005,0.933333333 11.6666667,1.14226712 11.6666667,1.4 L11.6666667,3.9424 C11.6671237,4.52114074 11.3080517,5.03928351 10.766,5.24206667 C10.5392,5.32544444 10.3169111,5.41753333 10.0991333,5.51833333 C9.56986065,5.7591098 8.94675703,5.64642679 8.53533333,5.23553333 L6.74053333,3.44306667 C6.65377218,3.353493 6.53437003,3.30297023 6.40966667,3.30306667 L6.40966667,3.30306667 C6.2867512,3.30343411 6.16910306,3.3530144 6.083,3.44073333 L3.4426,6.07926667 C3.35348973,6.16547403 3.30298328,6.28402333 3.30254393,6.40800783 C3.30210458,6.53199234 3.35176959,6.6508966 3.44026667,6.73773333 L5.23413333,8.53533333 C5.64494656,8.94660777 5.75763162,9.56953672 5.51693333,10.0986667 C5.41706667,10.3164444 5.32544444,10.5376444 5.24206667,10.7622667 C5.03771313,11.3067109 4.51693216,11.6671657 3.9354,11.6666667 L1.4,11.6666667 C1.14226712,11.6666667 0.933333333,11.8756005 0.933333333,12.1333333 L0.933333333,15.8666667 C0.933333333,16.1243995 1.14226712,16.3333333 1.4,16.3333333 L3.9382,16.3333333 C4.51997705,16.3325014 5.04100146,16.6933108 5.24486667,17.2382 C5.32793333,17.4634444 5.41955556,17.6846444 5.51973333,17.9018 C5.76035343,18.4307872 5.64766634,19.0535415 5.23693333,19.4646667 L3.44306667,21.2599333 C3.35369117,21.3460915 3.30300762,21.4647655 3.30256802,21.5889066 C3.30212843,21.7130477 3.35197026,21.8320777 3.44073333,21.9188667 L6.07926667,24.5574 C6.16592492,24.6465623 6.284864,24.6970315 6.4092,24.6974 L6.4092,24.6974 C6.5325434,24.6968414 6.65039778,24.6463324 6.73586667,24.5574 L8.53346667,22.764 C8.79679562,22.5025706 9.15313921,22.3563741 9.5242,22.3575333 Z" id="Shape"></path>
                <path d="M14,20.5333333 C10.3917396,20.5333333 7.46666667,17.6082604 7.46666667,14 C7.46666667,10.3917396 10.3917396,7.46666667 14,7.46666667 C17.6082604,7.46666667 20.5333333,10.3917396 20.5333333,14 C20.5294753,17.6066611 17.6066611,20.5294753 14,20.5333333 L14,20.5333333 Z M14,8.4 C10.9072054,8.4 8.4,10.9072054 8.4,14 C8.4,17.0927946 10.9072054,19.6 14,19.6 C17.0927946,19.6 19.6,17.0927946 19.6,14 C19.5966564,10.9085914 17.0914086,8.4033436 14,8.4 L14,8.4 Z" id="Shape"></path>
            </g>
        </g>
    </g>
</svg>