<?xml version="1.0" encoding="UTF-8"?>
<svg width="30px" height="30px" viewBox="0 0 30 30" version="1.1" xmlns="http://www.w3.org/2000/svg" xmlns:xlink="http://www.w3.org/1999/xlink">
    <g id="Menu-Icon/Dark/Shopping-List" stroke="none" stroke-width="1" fill="none" fill-rule="evenodd">
        <g id="noun_List_1808310" transform="translate(4.000000, 0.000000)" fill="#FFFFFF" fill-rule="nonzero">
            <g id="Group" transform="translate(0.000000, 0.201417)">
                <g transform="translate(0.313303, 0.105669)" id="Shape">
                    <path d="M11.0551181,0.0111893905 C9.76833789,0.0111893905 8.69415663,0.794446737 8.20182347,1.90219642 L5.68421053,1.90219642 C5.34852884,1.90219642 5.05760463,2.20430997 5.05760463,2.52880228 L5.05760463,3.16659758 L0.626605863,3.16659758 C0.279734766,3.16659758 0,3.49108989 0,3.79320347 L0,28.4322417 C0,28.756734 0.302113547,29.0588476 0.626605863,29.0588476 L21.4724406,29.0588476 C21.8081223,29.0588476 22.1102359,28.756734 22.1102359,28.4322417 L22.1102359,3.79320347 C22.1102359,3.46871116 21.8081223,3.16659758 21.4724406,3.16659758 L17.0526313,3.16659758 L17.0526313,2.52880228 C17.0526313,2.20430997 16.7505177,1.90219642 16.4260254,1.90219642 L13.9084124,1.90219642 C13.4160793,0.794446737 12.341898,0.0111893905 11.0551181,0.0111893905 Z M11.0551181,1.26440116 C11.9502692,1.26440116 12.6775797,1.86862825 12.890178,2.68545376 C12.9573142,2.95399914 13.2146703,3.16659758 13.5055945,3.16659758 L15.7882301,3.16659758 L15.7882301,5.05760463 L6.31081642,5.05760463 L6.31081642,3.16659758 L8.60464137,3.16659758 C8.88437621,3.16659758 9.15292168,2.95399914 9.22005789,2.68545376 C9.42146684,1.86862825 10.1599667,1.26440116 11.0551181,1.26440116 Z M1.26440116,4.43099874 L5.05760463,4.43099874 L5.05760463,5.69539989 C5.05760463,6.01989221 5.34852884,6.32200579 5.68421053,6.32200579 L16.4260254,6.32200579 C16.7505177,6.32200579 17.0526313,6.01989221 17.0526313,5.69539989 L17.0526313,4.43099874 L20.8458347,4.43099874 L20.8458347,27.7944464 L1.26440116,27.7944464 L1.26440116,4.43099874 Z M4.73311232,7.89970989 C4.03936989,7.89970989 3.46871116,8.47036863 3.46871116,9.16411105 C3.46871116,9.85785316 4.03936989,10.4285122 4.73311232,10.4285122 C5.43804379,10.4285122 5.99751347,9.85785316 5.99751347,9.16411105 C5.99751347,8.47036863 5.43804379,7.89970989 4.73311232,7.89970989 L4.73311232,7.89970989 Z M8.83961874,8.53750516 C8.49274737,8.53750516 8.21301284,8.81723968 8.21301284,9.16411105 C8.21301284,9.51098211 8.49274737,9.79071695 8.83961874,9.79071695 L18.0037295,9.79071695 C18.3506005,9.79071695 18.6303354,9.51098211 18.6303354,9.16411105 C18.6303354,8.81723968 18.3506005,8.53750516 18.0037295,8.53750516 L8.83961874,8.53750516 Z M4.73311232,12.9573145 C4.03936989,12.9573145 3.46871116,13.5167839 3.46871116,14.2217154 C3.46871116,14.9154578 4.03936989,15.4749272 4.73311232,15.4749272 C5.43804379,15.4749272 5.99751347,14.9154578 5.99751347,14.2217154 C5.99751347,13.5167839 5.43804379,12.9573145 4.73311232,12.9573145 L4.73311232,12.9573145 Z M8.83961874,13.5839201 C8.49274737,13.5839201 8.21301284,13.8636549 8.21301284,14.2217154 C8.21301284,14.5685867 8.49274737,14.8483213 8.83961874,14.8483213 L18.0037295,14.8483213 C18.3506005,14.8483213 18.6303354,14.5685867 18.6303354,14.2217154 C18.6303354,13.8636549 18.3506005,13.5839201 18.0037295,13.5839201 L8.83961874,13.5839201 Z M4.73311232,18.0037295 C4.03936989,18.0037295 3.46871116,18.5743885 3.46871116,19.2681306 C3.46871116,19.9618731 4.03936989,20.5325318 4.73311232,20.5325318 C5.43804379,20.5325318 5.99751347,19.9618731 5.99751347,19.2681306 C5.99751347,18.5743885 5.43804379,18.0037295 4.73311232,18.0037295 L4.73311232,18.0037295 Z M8.83961874,18.6415247 C8.49274737,18.6415247 8.21301284,18.9212596 8.21301284,19.2681306 C8.21301284,19.6150017 8.49274737,19.9059259 8.83961874,19.9059259 L18.0037295,19.9059259 C18.3506005,19.9059259 18.6303354,19.6150017 18.6303354,19.2681306 C18.6303354,18.9212596 18.3506005,18.6415247 18.0037295,18.6415247 L8.83961874,18.6415247 Z M4.73311232,23.0613341 C4.03936989,23.0613341 3.46871116,23.6208038 3.46871116,24.3257353 C3.46871116,25.0194774 4.03936989,25.5901364 4.73311232,25.5901364 C5.43804379,25.5901364 5.99751347,25.0194774 5.99751347,24.3257353 C5.99751347,23.6208038 5.43804379,23.0613341 4.73311232,23.0613341 L4.73311232,23.0613341 Z M8.83961874,23.68794 C8.49274737,23.68794 8.21301284,23.9676748 8.21301284,24.3257353 C8.21301284,24.6726063 8.49274737,24.9523412 8.83961874,24.9523412 L18.0037295,24.9523412 C18.3506005,24.9523412 18.6303354,24.6726063 18.6303354,24.3257353 C18.6303354,23.9676748 18.3506005,23.68794 18.0037295,23.68794 L8.83961874,23.68794 Z"></path>
                </g>
            </g>
        </g>
    </g>
</svg>