<?xml version="1.0" encoding="UTF-8"?>
<svg width="30px" height="18px" viewBox="0 0 30 18" version="1.1" xmlns="http://www.w3.org/2000/svg" xmlns:xlink="http://www.w3.org/1999/xlink">
    <!-- Generator: Sketch 60 (88103) - https://sketch.com -->
    <title>fish</title>
    <desc>Created with Sketch.</desc>
    <g id="Symbols" stroke="none" stroke-width="1" fill="none" fill-rule="evenodd">
        <g id="Food-Icon/Light/Fish" fill="#000000" fill-rule="nonzero">
            <g id="fish">
                <path d="M9.890625,13.0153846 C9.046875,12.6461538 8.25,12.2307692 7.453125,11.7692308 C6.28125,11.0769231 4.828125,11.2153846 3.890625,12.1384615 L1.40625,14.1230769 C1.40625,14.1230769 2.953125,10.3846154 2.953125,10.3384615 C3.1875,9.6 3.1875,8.81538462 2.953125,8.12307692 C2.859375,7.89230769 2.625,7.75384615 2.390625,7.8 C2.15625,7.89230769 2.015625,8.12307692 2.0625,8.35384615 C2.203125,8.90769231 2.203125,9.50769231 2.0625,10.0615385 C2.0625,10.0615385 0.421875,14.0307692 0.421875,14.0307692 C0.328125,14.4 0.46875,14.8153846 0.84375,15 C0.984375,15.0923077 1.453125,15.2307692 1.875,14.9076923 L4.5,12.7846154 C5.15625,12.1384615 6.140625,12.0461538 6.9375,12.5076923 C7.734375,13.0153846 8.625,13.4307692 9.515625,13.8 C9.75,13.8923077 10.03125,13.8 10.125,13.5692308 C10.265625,13.3846154 10.171875,13.1076923 9.890625,13.0153846 Z" id="Path"></path>
                <path d="M29.53125,9.09230769 C29.4375,8.86153846 27.421875,3.23076923 15.984375,3.23076923 C12.234375,3.23076923 9,4.70769231 6.984375,5.90769231 C6.1875,6.36923077 5.203125,6.27692308 4.546875,5.63076923 L1.96875,3.55384615 C1.6875,3.27692308 1.265625,3.23076923 0.890625,3.41538462 C0.5625,3.6 0.375,4.01538462 0.515625,4.43076923 L1.453125,6.73846154 C1.546875,6.96923077 1.828125,7.10769231 2.0625,7.01538462 C2.296875,6.92307692 2.4375,6.64615385 2.34375,6.41538462 L1.5,4.38461538 L3.9375,6.32307692 C4.875,7.24615385 6.375,7.43076923 7.5,6.73846154 C9.375,5.53846154 12.421875,4.15384615 15.984375,4.15384615 C19.171875,4.15384615 21.5625,4.61538462 23.34375,5.26153846 C22.5,6.41538462 22.078125,7.8 22.078125,9.23076923 C22.078125,9.50769231 22.265625,9.69230769 22.546875,9.69230769 C22.828125,9.69230769 23.015625,9.50769231 23.015625,9.23076923 C23.015625,7.93846154 23.484375,6.64615385 24.28125,5.58461538 C27.328125,6.87692308 28.359375,8.72307692 28.640625,9.23076923 C28.40625,9.78461538 27.375,11.6769231 24.421875,13.0153846 C23.90625,12.4153846 23.53125,11.6769231 23.296875,10.9384615 C23.203125,10.7076923 22.96875,10.5692308 22.734375,10.6153846 C22.5,10.7076923 22.359375,10.9384615 22.40625,11.1692308 C22.640625,11.9538462 23.015625,12.6923077 23.53125,13.3384615 C22.265625,13.8 20.71875,14.1230769 18.84375,14.2153846 C18.5625,14.2153846 18.375,14.4461538 18.421875,14.7230769 C18.46875,15.1846154 18.890625,15.1384615 18.9375,15.1384615 C27.65625,14.6307692 29.484375,9.6 29.53125,9.36923077 C29.578125,9.27692308 29.578125,9.18461538 29.53125,9.09230769 Z" id="Path"></path>
                <path d="M11.4375,6.6 C13.03125,6.04615385 14.671875,5.76923077 16.21875,5.76923077 C16.5,5.76923077 16.6875,5.58461538 16.6875,5.30769231 C16.6875,5.03076923 16.5,4.84615385 16.21875,4.84615385 C14.53125,4.84615385 12.84375,5.12307692 11.109375,5.72307692 C10.875,5.81538462 10.734375,6.04615385 10.828125,6.32307692 C10.96875,6.64615385 11.390625,6.6 11.4375,6.6 Z" id="Path"></path>
                <path d="M18.796875,5.90769231 C19.03125,5.90769231 19.21875,5.72307692 19.265625,5.49230769 C19.3125,5.26153846 19.125,5.03076923 18.84375,4.98461538 C18.46875,4.93846154 18.09375,4.93846154 17.71875,4.89230769 C17.484375,4.89230769 17.25,5.07692308 17.203125,5.30769231 C17.203125,5.58461538 17.390625,5.76923077 17.625,5.81538462 C18.046875,5.81538462 18.75,5.90769231 18.796875,5.90769231 Z" id="Path"></path>
                <path d="M11.296875,3.46153846 C11.578125,3.46153846 11.765625,3.27692308 11.765625,3 L11.765625,1.84615385 C11.765625,1.56923077 11.953125,1.38461538 12.234375,1.38461538 C13.5,1.38461538 14.71875,1.84615385 15.703125,2.67692308 C15.890625,2.86153846 16.171875,2.81538462 16.359375,2.63076923 C16.546875,2.44615385 16.5,2.16923077 16.3125,1.98461538 C15.1875,0.969230769 13.734375,0.415384615 12.234375,0.415384615 C11.4375,0.415384615 10.828125,1.01538462 10.828125,1.8 L10.828125,2.95384615 C10.828125,3.23076923 11.015625,3.46153846 11.296875,3.46153846 Z" id="Path"></path>
                <path d="M17.953125,12.4615385 C17.71875,12.4153846 17.4375,12.5538462 17.390625,12.7846154 C16.453125,16.4769231 13.734375,17.0307692 12.234375,17.0307692 C11.953125,17.0307692 11.765625,16.8461538 11.765625,16.5692308 L11.765625,12 C11.765625,11.7230769 11.578125,11.5384615 11.296875,11.5384615 C11.015625,11.5384615 10.828125,11.7230769 10.828125,12 L10.828125,16.6153846 C10.828125,17.4 11.4375,18 12.234375,18 C14.015625,18 17.203125,17.3538462 18.328125,13.0153846 C18.375,12.7846154 18.1875,12.5538462 17.953125,12.4615385 Z" id="Path"></path>
            </g>
        </g>
    </g>
</svg>