<?xml version="1.0" encoding="UTF-8"?>
<svg width="30px" height="30px" viewBox="0 0 30 30" version="1.1" xmlns="http://www.w3.org/2000/svg" xmlns:xlink="http://www.w3.org/1999/xlink">
    <!-- Generator: Sketch 60 (88103) - https://sketch.com -->
    <title>frozen</title>
    <desc>Created with Sketch.</desc>
    <g id="Symbols" stroke="none" stroke-width="1" fill="none" fill-rule="evenodd">
        <g id="Food-Icon/Light/Frozen" fill="#000000" fill-rule="nonzero">
            <g id="frozen">
                <g id="Group">
                    <path d="M15.7142857,16.7244383 L15.7142857,23.9390847 L18.0304576,26.2552566 C18.3094036,26.5342026 18.3094036,26.9864633 18.0304576,27.2654092 C17.7515117,27.5443551 17.299251,27.5443551 17.0203051,27.2654092 L15.7142857,25.9593899 L15.7142857,29.2857143 C15.7142857,29.6802034 15.3944891,30 15,30 C14.6055109,30 14.2857143,29.6802034 14.2857143,29.2857143 L14.2857143,25.9593899 L12.9796949,27.2654092 C12.700749,27.5443551 12.2484883,27.5443551 11.9695424,27.2654092 C11.6905964,26.9864633 11.6905964,26.5342026 11.9695424,26.2552566 L14.2857143,23.9390847 L14.2857143,16.7244383 L9.28571429,21.7244383 L9.28571429,25 C9.28571429,25.3944891 8.96591764,25.7142857 8.57142857,25.7142857 C8.1769395,25.7142857 7.85714286,25.3944891 7.85714286,25 L7.85714286,23.1530097 L5.50507629,25.5050763 C5.22613036,25.7840222 4.77386965,25.7840222 4.49492373,25.5050763 C4.21597781,25.2261304 4.21597781,24.7738696 4.49492373,24.4949237 L6.84699029,22.1428571 L5,22.1428571 C4.60551089,22.1428571 4.28571429,21.8230605 4.28571429,21.4285714 C4.28571429,21.0340824 4.60551089,20.7142857 5,20.7142857 L8.27556171,20.7142857 L13.2755617,15.7142857 L6.01015257,15.7142857 L3.69398063,18.0304576 C3.4150347,18.3094036 2.962774,18.3094036 2.68382808,18.0304576 C2.40488216,17.7515117 2.40488216,17.299251 2.68382808,17.0203051 L3.98984746,15.7142857 L0.714285714,15.7142857 C0.319796607,15.7142857 0,15.3944891 0,15 C0,14.6055109 0.319796607,14.2857143 0.714285714,14.2857143 L3.98984746,14.2857143 L2.68382808,12.9796949 C2.40488216,12.700749 2.40488216,12.2484883 2.68382808,11.9695424 C2.962774,11.6905964 3.4150347,11.6905964 3.69398063,11.9695424 L6.01015257,14.2857143 L13.2755617,14.2857143 L8.27556171,9.28571429 L5,9.28571429 C4.60551089,9.28571429 4.28571429,8.96591764 4.28571429,8.57142857 C4.28571429,8.1769395 4.60551089,7.85714286 5,7.85714286 L6.84699029,7.85714286 L4.49492373,5.50507629 C4.21597781,5.22613036 4.21597781,4.77386965 4.49492373,4.49492373 C4.77386965,4.21597781 5.22613036,4.21597781 5.50507629,4.49492373 L7.85714286,6.84699029 L7.85714286,5 C7.85714286,4.60551089 8.1769395,4.28571429 8.57142857,4.28571429 C8.96591764,4.28571429 9.28571429,4.60551089 9.28571429,5 L9.28571429,8.27556171 L14.2857143,13.2755617 L14.2857143,6.01015257 L11.9695424,3.69398063 C11.6905964,3.4150347 11.6905964,2.962774 11.9695424,2.68382808 C12.2484883,2.40488216 12.700749,2.40488216 12.9796949,2.68382808 L14.2857143,3.98984746 L14.2857143,0.714285714 C14.2857143,0.319796607 14.6055109,0 15,0 C15.3944891,0 15.7142857,0.319796607 15.7142857,0.714285714 L15.7142857,3.98984746 L17.0203051,2.68382808 C17.299251,2.40488216 17.7515117,2.40488216 18.0304576,2.68382808 C18.3094036,2.962774 18.3094036,3.4150347 18.0304576,3.69398063 L15.7142857,6.01015257 L15.7142857,13.2755617 L20.7142857,8.27556171 L20.7142857,5 C20.7142857,4.60551089 21.0340824,4.28571429 21.4285714,4.28571429 C21.8230605,4.28571429 22.1428571,4.60551089 22.1428571,5 L22.1428571,6.84699029 L24.4949237,4.49492373 C24.7738696,4.21597781 25.2261304,4.21597781 25.5050763,4.49492373 C25.7840222,4.77386965 25.7840222,5.22613036 25.5050763,5.50507629 L23.1530097,7.85714286 L25,7.85714286 C25.3944891,7.85714286 25.7142857,8.1769395 25.7142857,8.57142857 C25.7142857,8.96591764 25.3944891,9.28571429 25,9.28571429 L21.7244383,9.28571429 L16.7244383,14.2857143 L23.9390847,14.2857143 L26.2552566,11.9695424 C26.5342026,11.6905964 26.9864633,11.6905964 27.2654092,11.9695424 C27.5443551,12.2484883 27.5443551,12.700749 27.2654092,12.9796949 L25.9593899,14.2857143 L29.2857143,14.2857143 C29.6802034,14.2857143 30,14.6055109 30,15 C30,15.3944891 29.6802034,15.7142857 29.2857143,15.7142857 L25.9593899,15.7142857 L27.2654092,17.0203051 C27.5443551,17.299251 27.5443551,17.7515117 27.2654092,18.0304576 C26.9864633,18.3094036 26.5342026,18.3094036 26.2552566,18.0304576 L23.9390847,15.7142857 L16.7244383,15.7142857 L21.7244383,20.7142857 L25,20.7142857 C25.3944891,20.7142857 25.7142857,21.0340824 25.7142857,21.4285714 C25.7142857,21.8230605 25.3944891,22.1428571 25,22.1428571 L23.1530097,22.1428571 L25.5050763,24.4949237 C25.7840222,24.7738696 25.7840222,25.2261304 25.5050763,25.5050763 C25.2261304,25.7840222 24.7738696,25.7840222 24.4949237,25.5050763 L22.1428571,23.1530097 L22.1428571,25 C22.1428571,25.3944891 21.8230605,25.7142857 21.4285714,25.7142857 C21.0340824,25.7142857 20.7142857,25.3944891 20.7142857,25 L20.7142857,21.7244383 L15.7142857,16.7244383 Z" id="Path"></path>
                </g>
            </g>
        </g>
    </g>
</svg>