<?xml version="1.0" encoding="UTF-8"?>
<svg width="30px" height="30px" viewBox="0 0 30 30" version="1.1" xmlns="http://www.w3.org/2000/svg" xmlns:xlink="http://www.w3.org/1999/xlink">
    <!-- Generator: Sketch 60 (88103) - https://sketch.com -->
    <title>Group 2</title>
    <desc>Created with Sketch.</desc>
    <g id="Symbols" stroke="none" stroke-width="1" fill="none" fill-rule="evenodd">
        <g id="Food-Icon/Light/Fruits-&amp;-Veggies" fill="#000000" fill-rule="nonzero">
            <g id="Group-2">
                <g id="apple" transform="translate(14.000000, 10.000000)">
                    <path d="M14.1614815,7.30444444 C13.3311111,6.50592593 12.2274074,6.06592593 11.0533333,6.06592593 C10.1466667,6.06592593 9.28074074,6.34 8.53481481,6.8237037 C8.40592593,5.55185185 8.03111111,4.39481481 7.39925926,3.38962963 C7.29037037,3.21688984 7.06222222,3.16518519 6.88814815,3.27333333 C6.71555556,3.38222222 6.66296296,3.61111111 6.77185185,3.78444444 C7.33333333,4.6762963 7.66814815,5.70740741 7.79111111,6.84296296 C7.03777778,6.34666667 6.16074074,6.06518519 5.24222222,6.06518519 C4.06814815,6.06518519 2.96444444,6.50518519 2.12888889,7.30888889 C0.994814815,8.44296296 0.417037037,10.1148148 0.582962963,11.7807407 C0.894074074,14.9088889 3.87925926,19.8896296 6.83185185,19.8896296 C7.2962963,19.8896296 7.73777778,19.7666667 8.14814815,19.5251852 C8.55925926,19.7666667 9,19.8896296 9.46444444,19.8896296 C12.4155556,19.8896296 15.4022222,14.9081481 15.7125926,11.7807407 C15.8785185,10.1148148 15.3007407,8.4437037 14.1614815,7.30444444 Z M14.9762963,11.7074074 C14.6718519,14.7814815 11.7696296,19.1496296 9.46518519,19.1496296 C9.0762963,19.1496296 8.70592593,19.0266667 8.36444444,18.7837037 C8.3,18.737037 8.22518519,18.7140741 8.14962963,18.7140741 C8.07407407,18.7140741 7.99925926,18.737037 7.93481481,18.7837037 C7.59333333,19.0266667 7.22296296,19.1496296 6.83333333,19.1496296 C4.52888889,19.1496296 1.62740741,14.7822222 1.32222222,11.7074074 C1.17703704,10.26 1.67555556,8.81185185 2.64888889,7.83777778 C3.34074074,7.17259259 4.26222222,6.80592593 5.2437037,6.80592593 C6.23259259,6.80592593 7.17481481,7.17407407 7.89777778,7.84222222 C8.03925926,7.97333333 8.25851852,7.97333333 8.40074074,7.84222222 C9.12444444,7.17407407 10.0659259,6.80592593 11.0548148,6.80592593 C12.0362963,6.80592593 12.9577778,7.17259259 13.6444444,7.83259259 C14.6222222,8.81111111 15.12,10.26 14.9762963,11.7074074 Z" id="Shape"></path>
                    <path d="M9.25037037,5.23333333 C9.34,5.23851852 9.42962963,5.24148148 9.51777778,5.24148148 C10.6637037,5.24148148 11.7325926,4.80222222 12.5296296,4.00518519 C13.3844444,3.15037037 13.8325926,1.95407407 13.7577778,0.725185185 C13.7459259,0.538518519 13.597037,0.388888889 13.4103704,0.377777778 C12.1748148,0.304444444 10.9896296,0.746666667 10.1303704,1.60592593 C9.27555556,2.46074074 8.82740741,3.6562963 8.90222222,4.88592593 C8.91555556,5.07333333 9.0637037,5.22222222 9.25037037,5.23333333 Z M10.657037,2.13037037 C11.2866667,1.50074074 12.122963,1.14222222 13.0244444,1.11259259 C12.9940741,2.00666667 12.6333333,2.85555556 12.0074074,3.48148148 C11.377037,4.11111111 10.5414815,4.46962963 9.64,4.49925926 C9.66888889,3.60444444 10.0303704,2.7562963 10.657037,2.13037037 Z" id="Shape"></path>
                    <path d="M3.93703704,8.6437037 C3.79259259,8.49925926 3.55777778,8.49925926 3.41333333,8.6437037 C2.68444444,9.37407407 2.31555556,10.4777778 2.42666667,11.597037 C2.50888889,12.4325926 2.80740741,13.3918519 3.28888889,14.3718519 C3.35333333,14.5037037 3.48518519,14.58 3.62148148,14.58 C3.6762963,14.58 3.73185185,14.5666667 3.78444444,14.5414815 C3.96814815,14.4511111 4.0437037,14.2296296 3.95407407,14.0459259 C3.51111111,13.1437037 3.23777778,12.2718519 3.1637037,11.5244444 C3.07555556,10.6362963 3.37185185,9.73407407 3.93703704,9.16666667 C4.08148148,9.02296296 4.08148148,8.78814815 3.93703704,8.6437037 Z" id="Path"></path>
                </g>
                <g id="carrots">
                    <path d="M14.4571186,2.11292227 C13.549346,2.14591387 12.6739938,2.60779636 12.0904257,3.33361169 L2.16976752,15.2435814 C2.00766526,15.5734975 2.20218797,15.7054639 2.20218797,15.7054639 C2.33186977,15.8374304 2.55881293,15.8044387 2.65607429,15.6724723 L6.02780125,11.6474964 C6.28716486,11.8784376 6.80589209,12.4392949 6.80589209,12.4722865 C6.93557389,12.604253 7.09767615,12.604253 7.22735796,12.5052782 C7.35703976,12.4063033 7.38946021,12.1753621 7.29219886,12.0433957 C7.03283525,11.7134796 6.74105118,11.4165552 6.44926712,11.1526223 L9.36710776,7.65551207 C9.78857363,7.95243652 10.1451986,8.28235258 10.4694031,8.71124346 C10.5666645,8.84320989 10.7936076,8.87620149 10.9232894,8.77722667 C11.0529712,8.67825186 11.0853917,8.44731061 10.9881303,8.31534419 C10.6315054,7.85346171 10.2424599,7.49055404 9.78857363,7.16063798 L12.6091529,3.76250257 C13.0630392,3.16865366 13.7762892,2.8387376 14.4895391,2.80574599 C15.2352095,2.77275439 15.9484594,3.03668723 16.4671866,3.56455293 C17.2776979,4.38934308 17.4722206,5.67601571 16.921073,6.6987555 C16.8238116,6.86371353 16.8886525,7.06166316 17.0507548,7.16063798 C17.212857,7.2596128 17.4073797,7.19362959 17.5046411,7.02867156 C18.1854706,5.74199892 17.9585274,4.12541023 16.9534934,3.10267045 C16.2726639,2.40984672 15.3648913,2.04693905 14.4571186,2.11292227 Z" id="Path"></path>
                    <path d="M1.16211978,16.7678406 C1.2898028,16.884499 1.5132481,16.8553344 1.60901037,16.738676 L2.02398021,16.2720426 C2.15166324,16.1553842 2.11974248,15.9512321 1.99205946,15.8637383 C1.86437643,15.74708 1.64093113,15.7762446 1.54516886,15.8929029 L1.13019902,16.3595364 C0.938674477,16.5928531 1.16211978,16.7678406 1.16211978,16.7678406 Z" id="Path"></path>
                    <path d="M16.2758536,7.26909456 L14.9204434,8.43844315 C14.5977266,7.91873266 14.1781949,7.46398599 13.6941198,7.07420312 C13.5327614,6.97675741 13.3391314,7.00923931 13.2100447,7.13916693 C13.1132296,7.26909456 13.1132296,7.49646789 13.274588,7.59391361 C13.7586631,7.98369647 14.1136515,8.40596124 14.4040966,8.86070792 L11.0155709,11.7515975 C10.7251258,11.3942965 10.4024091,11.0369956 10.015149,10.7446584 C9.88606229,10.6472127 9.66016057,10.6472127 9.56334555,10.8096222 C9.46653053,10.9395499 9.46653053,11.1669232 9.6278889,11.2643689 C9.98287731,11.5567061 10.2733224,11.8490432 10.5314958,12.1738623 L6.23936318,15.8443176 C5.94891812,15.4870166 5.62620138,15.1621975 5.27121298,14.8698604 C5.14212628,14.7724147 4.91622457,14.7724147 4.81940955,14.9348242 C4.72259453,15.0647518 4.72259453,15.2921252 4.88395289,15.3895709 C5.20666963,15.6494261 5.49711469,15.9417633 5.75528808,16.2665823 L2.43130571,19.0925081 C1.97950228,19.449809 1.36634048,19.4173271 0.946808727,19.0275443 C0.559548645,18.6377614 0.527276971,17.9881233 0.88226538,17.5333766 C0.9790804,17.403449 0.9790804,17.2085576 0.849993706,17.07863 C0.720907012,16.9487023 0.495005298,16.9811842 0.398190277,17.1111119 C-0.182699846,17.8257138 -0.118156499,18.8326528 0.527276971,19.4822909 C1.17271044,20.1319291 2.17313232,20.164411 2.88310914,19.6122186 L16.7276571,7.78880504 C16.8567438,7.65887742 16.8890154,7.46398599 16.7599287,7.33405837 C16.5985704,7.17164884 16.4049403,7.17164884 16.2758536,7.26909456 Z" id="Path"></path>
                    <path d="M14.2583732,4.46035088 C14.6411483,4.05614035 15.2472089,4.05614035 15.5980861,4.46035088 C15.7256778,4.59508772 15.9170654,4.59508772 16.0446571,4.46035088 C16.1722488,4.32561404 16.1722488,4.12350877 16.0446571,3.98877193 C16.0446571,3.98877193 16.0446571,3.98877193 16.0446571,3.98877193 C15.4066986,3.34877193 14.4178628,3.34877193 13.7799043,3.98877193 C13.6523126,4.12350877 13.6523126,4.32561404 13.7799043,4.46035088 C13.907496,4.59508772 14.1307815,4.59508772 14.2583732,4.46035088 Z" id="Path"></path>
                    <path d="M19.9833464,2.6630706 C19.8899742,2.32391309 19.5787333,2.15433434 18.9873756,2.15433434 C19.2363683,1.64559808 19.2363683,1.30644057 19.0184996,1.06903032 C18.800631,0.831620061 18.4893901,0.865535812 18.0225288,1.10294607 C18.0225288,0.458546803 17.8669083,0.119389296 17.5556674,0.0176420442 C16.9643097,-0.151936709 16.4663243,0.933367313 16.1550834,1.88300833 C16.1239593,2.01867134 16.1239593,2.22216584 16.3418279,2.32391309 C16.4974484,2.39174459 16.6841929,2.28999734 16.7464411,2.12041859 C16.9954338,1.37427207 17.2444265,0.933367313 17.3689229,0.76378856 C17.400047,0.933367313 17.4311711,1.20469332 17.3689229,1.67951383 C17.3689229,1.81517683 17.400047,1.95083983 17.5245433,2.01867134 C17.6179156,2.08650284 17.7735361,2.08650284 17.8669083,2.01867134 C18.1781492,1.78126108 18.3960179,1.67951383 18.5205142,1.61168233 C18.4893901,1.74734533 18.3648938,1.98475558 18.1470251,2.32391309 C18.084777,2.42566034 18.084777,2.56132335 18.1470251,2.69698635 C18.2092733,2.7987336 18.3337697,2.8665651 18.458266,2.8665651 C18.8940033,2.7987336 19.1741201,2.83264935 19.3297405,2.8665651 C19.1741201,3.00222811 18.800631,3.27355411 18.115901,3.54488012 C17.9602806,3.61271162 17.8669083,3.81620612 17.9291565,3.98578488 C17.9914047,4.15536363 18.1781492,4.25711088 18.3337697,4.18927938 C19.1741201,3.85012187 20.1389669,3.30746986 19.9833464,2.6630706 Z" id="Path"></path>
                </g>
            </g>
        </g>
    </g>
</svg>