<?xml version="1.0" encoding="UTF-8"?>
<svg width="30px" height="30px" viewBox="0 0 30 30" version="1.1" xmlns="http://www.w3.org/2000/svg" xmlns:xlink="http://www.w3.org/1999/xlink">
    <!-- Generator: Sketch 60 (88103) - https://sketch.com -->
    <title>meat2</title>
    <desc>Created with Sketch.</desc>
    <g id="Symbols" stroke="none" stroke-width="1" fill="none" fill-rule="evenodd">
        <g id="Food-Icon/Light/Meat" fill="#000000" fill-rule="nonzero">
            <g id="meat2" transform="translate(-0.000000, 0.000000)">
                <g id="Group">
                    <path d="M17.3809524,0.476190476 C17.2857143,0.476190476 7.28571429,-0.19047619 3.19047619,8.0952381 C2.52380952,9.38095238 2,10.8095238 1.61904762,12.2857143 C1.57142857,12.5238095 1.71428571,12.8095238 2,12.8571429 C2.23809524,12.9047619 2.52380952,12.7619048 2.57142857,12.4761905 C2.9047619,11.047619 3.42857143,9.76190476 4.04761905,8.52380952 C7.85714286,0.761904762 17.2857143,1.42857143 17.3809524,1.42857143 C23.7142857,1.42857143 28.9047619,5.66666667 29.047619,11 C29.1428571,15.5238095 25.7142857,18.5714286 19.8571429,19.1904762 C18.2857143,19.3809524 16.8095238,20.047619 15.6666667,21.1428571 L12.6190476,24.1904762 C11.3333333,25.4761905 9.61904762,26.1428571 7.76190476,26.1428571 C5.76190476,26.1428571 3.9047619,25.3333333 2.66666667,23.952381 C1.85714286,23.047619 1.42857143,21.9047619 1.42857143,20.7142857 C1.42857143,20.4761905 2.28571429,14.1428571 2.28571429,14.1428571 C2.33333333,13.9047619 2.14285714,13.6190476 1.85714286,13.6190476 C1.57142857,13.5714286 1.33333333,13.7619048 1.33333333,14.047619 C1.33333333,14.047619 0.476190476,20.4761905 0.476190476,20.7142857 C0.19047619,23.9047619 0.714285714,26.2857143 2.0952381,27.8571429 C3.33333333,29.2857143 5.28571429,30 7.80952381,30 C9.95238095,30 11.9047619,29.1904762 13.3333333,27.7619048 L16.3809524,24.7142857 C16.5714286,24.5238095 16.5714286,24.2380952 16.3809524,24.047619 C16.1904762,23.8571429 15.9047619,23.8571429 15.7142857,24.047619 L12.6666667,27.0952381 C11.3809524,28.3809524 9.66666667,29.047619 7.80952381,29.047619 C5.57142857,29.047619 3.9047619,28.4285714 2.80952381,27.2380952 C2.0952381,26.4285714 1.66666667,25.3333333 1.42857143,24 C1.57142857,24.2380952 3.19047619,27.047619 7.76190476,27.1904762 C9.9047619,27.2380952 11.8571429,26.3809524 13.2857143,24.952381 L16.3333333,21.9047619 C17.2857143,20.952381 18.5714286,20.3333333 19.952381,20.1904762 C23.8571429,19.7619048 26.8095238,18.2857143 28.4761905,16 C27.2380952,20.2857143 24.1904762,21.6190476 19.8571429,22.0952381 C18.952381,22.1904762 18.047619,22.4761905 17.2380952,22.9047619 C17,23.047619 16.9047619,23.3333333 17.047619,23.5714286 C17.2380952,23.9047619 17.6190476,23.8095238 17.7142857,23.7619048 C18.4285714,23.3809524 19.1904762,23.1428571 19.952381,23.047619 C25.1428571,22.4761905 30,20.6190476 30,11.047619 C30.047619,10.9047619 30.047619,1.0952381 17.3809524,0.476190476 Z" id="Path"></path>
                    <path d="M16.9047619,2.19047619 C11.8571429,2.38095238 8.19047619,4.23809524 5.66666667,7.9047619 C4.42857143,9.71428571 3.61904762,11.7619048 3.23809524,14.047619 L2.33333333,20 C2.14285714,21.2857143 2.52380952,22.5238095 3.38095238,23.5238095 C4.42857143,24.7142857 5.95238095,25.4285714 7.66666667,25.4285714 C9.19047619,25.4285714 10.6666667,24.8571429 11.7142857,23.8095238 L14.6190476,20.9047619 C15.952381,19.5714286 17.8571429,18.6666667 19.9047619,18.2857143 C25.5238095,17.3809524 28.5238095,14.3809524 27.952381,10.1904762 C27.4285714,6.23809524 23.8095238,3 19.1428571,2.33333333 C18.9047619,2.28571429 18.6190476,2.47619048 18.6190476,2.71428571 C18.5714286,2.95238095 18.7619048,3.23809524 19,3.23809524 C23.2380952,3.85714286 26.5238095,6.76190476 27.047619,10.3333333 C27.7619048,15.6190476 21.6666667,17.047619 19.8095238,17.3333333 C17.5238095,17.7142857 15.4761905,18.7142857 14,20.1904762 L11.0952381,23.0952381 C10.2380952,23.952381 9.04761905,24.4285714 7.71428571,24.4285714 C6.28571429,24.4285714 5,23.8571429 4.14285714,22.8571429 C3.47619048,22.047619 3.14285714,21.0952381 3.33333333,20.0952381 L4.23809524,14.0952381 C4.57142857,12 5.33333333,10.047619 6.47619048,8.38095238 C8.85714286,4.95238095 12.1904762,3.23809524 16.952381,3.0952381 C17.2380952,3.0952381 17.4285714,2.85714286 17.4285714,2.61904762 C17.3809524,2.38095238 17.1428571,2.19047619 16.9047619,2.19047619 Z" id="Path"></path>
                    <path d="M17.1428571,5.23809524 C16.1904762,5.23809524 15.3333333,5.61904762 14.6666667,6.33333333 C14.4761905,6.52380952 14.5238095,6.80952381 14.7142857,7 C14.9047619,7.19047619 15.1904762,7.14285714 15.3809524,6.95238095 C15.8095238,6.47619048 16.4761905,6.19047619 17.1428571,6.19047619 C18.4761905,6.19047619 19.5238095,7.23809524 19.5238095,8.57142857 C19.5238095,9.9047619 18.4761905,10.952381 17.1428571,10.952381 C15.8095238,10.952381 14.7619048,9.9047619 14.7619048,8.57142857 C14.7619048,8.28571429 14.5714286,8.0952381 14.2857143,8.0952381 C14,8.0952381 13.8095238,8.28571429 13.8095238,8.57142857 C13.8095238,10.4285714 15.2857143,11.9047619 17.1428571,11.9047619 C19,11.9047619 20.4761905,10.4285714 20.4761905,8.57142857 C20.4761905,6.71428571 19,5.23809524 17.1428571,5.23809524 Z" id="Path"></path>
                    <path d="M24.8571429,12.6190476 C24.0952381,14.2380952 22.7619048,14.7619048 19.9047619,15.5238095 C19.6666667,15.5714286 19.5238095,15.8571429 19.5714286,16.0952381 C19.6666667,16.5714286 20.0952381,16.4285714 20.1428571,16.4285714 C22.8571429,15.7142857 24.7142857,15.1428571 25.7142857,13 C25.8095238,12.7619048 25.7142857,12.4761905 25.4761905,12.3809524 C25.2380952,12.2857143 24.952381,12.3809524 24.8571429,12.6190476 Z" id="Path"></path>
                    <path d="M25.7142857,11.2857143 C26,11.2857143 26.1904762,11.0952381 26.1904762,10.8095238 C26.1904762,10.2857143 26.0952381,9.76190476 25.952381,9.23809524 C25.8571429,9 25.6190476,8.85714286 25.3333333,8.9047619 C25.0952381,9 24.952381,9.23809524 25,9.52380952 C25.1428571,9.95238095 25.1904762,10.3809524 25.1904762,10.8095238 C25.2380952,11.0952381 25.4285714,11.2857143 25.7142857,11.2857143 Z" id="Path"></path>
                </g>
            </g>
        </g>
    </g>
</svg>