<?xml version="1.0" encoding="UTF-8"?>
<svg width="30px" height="30px" viewBox="0 0 30 30" version="1.1" xmlns="http://www.w3.org/2000/svg" xmlns:xlink="http://www.w3.org/1999/xlink">
    <!-- Generator: Sketch 60 (88103) - https://sketch.com -->
    <title>noun_House_1233604</title>
    <desc>Created with Sketch.</desc>
    <g id="Symbols" stroke="none" stroke-width="1" fill="none" fill-rule="evenodd">
        <g id="Food-Icon/Light/House" fill="#000000" fill-rule="nonzero">
            <g id="noun_House_1233604">
                <path d="M29.8192477,8.89578422 L26.6253328,6.96470892 L26.6253328,0.404677379 C26.6253328,0.197321138 26.4573307,0.0297113008 26.2503281,0.0297113008 L22.2655283,0.0297113008 C22.0585257,0.0297113008 21.8905236,0.197321138 21.8905236,0.404677379 L21.8905236,4.10184291 L15.1951899,0.0540840959 C15.1573145,0.0312111651 15.116064,0.0165874881 15.0733134,0.00983809868 C14.9776872,-0.0122848999 14.877561,0.00308870927 14.7935599,0.0540840959 L0.180752259,8.89578422 C0.0686258578,8.96365308 0,9.08551706 0,9.21638022 L0,12.3098504 C0,12.4440882 0.0716258953,12.568202 0.188252353,12.634946 C0.304878811,12.7020649 0.448130602,12.7013149 0.56400705,12.6334461 L2.76453456,11.3469375 L2.76453456,26.4603202 L1.71752147,26.4603202 C1.51051888,26.4603202 1.34251678,26.6279301 1.34251678,26.8352863 L1.34251678,29.6250339 C1.34251678,29.8323902 1.51051888,30 1.71752147,30 L28.2821035,30 C28.4891061,30 28.6571082,29.8323902 28.6571082,29.6250339 L28.6571082,26.8352863 C28.6571082,26.6279301 28.4891061,26.4603202 28.2821035,26.4603202 L27.2350904,26.4603202 L27.2350904,11.3476874 L29.4359929,12.6334461 C29.4944937,12.667568 29.5597445,12.6848164 29.6249953,12.6848164 C29.6894961,12.6848164 29.7539969,12.6683179 29.8117476,12.634946 C29.9283741,12.568202 30,12.4440882 30,12.3098504 L30,9.21638022 C30,9.08551706 29.9313741,8.96327811 29.8192477,8.89578422 Z M22.640533,0.779643457 L25.8749484,0.779643457 L25.8749484,6.51099996 L22.640533,4.55555186 L22.640533,0.779643457 Z M27.9070988,29.2500678 L2.09252616,29.2500678 L2.09252616,27.2102524 L27.9070988,27.2102524 L27.9070988,29.2500678 Z M17.8123477,26.4603202 L12.1872773,26.4603202 L12.1872773,14.2214274 L17.8123477,14.2214274 L17.8123477,26.4603202 Z M26.4850811,26.4603202 L18.562357,26.4603202 L18.562357,13.8464614 C18.562357,13.6391051 18.3943549,13.4714953 18.1873523,13.4714953 L11.8122727,13.4714953 C11.6052701,13.4714953 11.437268,13.6391051 11.437268,13.8464614 L11.437268,26.4603202 L3.51491894,26.4603202 L3.51491894,10.9086021 L14.9945624,4.19670933 L26.4854561,10.909727 L26.4854561,26.4603202 L26.4850811,26.4603202 Z M29.2499906,11.6566595 L15.1835648,3.43852792 C15.1250641,3.404406 15.0598132,3.38715757 14.9945624,3.38715757 C14.9293116,3.38715757 14.8636858,3.404406 14.8051851,3.43852792 L0.750009375,11.6562845 L0.750009375,9.42786109 L14.9941874,0.808890811 L29.2499906,9.42748612 L29.2499906,11.6566595 Z" id="Shape"></path>
                <path d="M7.77796475,14.4444444 C6.55260812,14.4444444 5.55555556,15.4389621 5.55555556,16.6620358 L5.55555556,19.6265424 C5.55555556,19.8330644 5.72322806,20 5.92982453,20 L9.6257307,20 C9.83232718,20 9.99999979,19.8330644 9.99999979,19.6265424 L9.99999979,16.6620358 C10.000374,15.4389621 9.00332139,14.4444444 7.77796475,14.4444444 Z M9.25183599,19.2527113 L6.30446778,19.2527113 L6.30446778,16.6616623 C6.30446778,15.8508858 6.96580107,15.1909862 7.77833902,15.1909862 C8.59087698,15.1909862 9.25221026,15.8508858 9.25221026,16.6616623 L9.25221026,19.2527113 L9.25183599,19.2527113 Z" id="Shape"></path>
                <path d="M20.3746117,20 L24.070207,20 C24.276786,20 24.4444444,19.8330644 24.4444444,19.6265424 L24.4444444,16.6620358 C24.4444444,15.4393355 23.4474758,14.4444444 22.2222222,14.4444444 C20.9969687,14.4444444 20,15.4389621 20,16.6620358 L20,19.6265424 C20.0003742,19.8330644 20.1680326,20 20.3746117,20 Z M20.7488492,16.6620358 C20.7488492,15.8512593 21.4101269,15.1913597 22.2225965,15.1913597 C23.0350661,15.1913597 23.6963437,15.8512593 23.6963437,16.6620358 L23.6963437,19.2530848 L20.7492235,19.2530848 L20.7492235,16.6620358 L20.7488492,16.6620358 Z" id="Shape"></path>
            </g>
        </g>
    </g>
</svg>